<svg width="257" height="247" viewBox="0 0 257 247" fill="none" xmlns="http://www.w3.org/2000/svg">
<path d="M134.856 62.1192C149.628 52.89 169.002 61.9751 171.353 79.2335L181.918 156.787C184.485 175.628 165.165 189.829 147.948 181.756L71.0043 145.675C53.7877 137.602 52.3503 113.668 68.4769 103.592L134.856 62.1192Z" stroke="#5fb4a2" stroke-width="2"/>
<path d="M36.8529 138.35C37.6529 138.183 38.2363 138.017 38.6029 137.85C38.9696 137.65 39.2196 137.383 39.3529 137.05C39.4863 136.683 39.5529 136.133 39.5529 135.4V110.95C39.5529 110.217 39.4863 109.683 39.3529 109.35C39.2196 108.983 38.9696 108.717 38.6029 108.55C38.2363 108.35 37.6529 108.167 36.8529 108L34.2529 107.45V106.35H51.7529V107.45L49.2029 108C48.3696 108.167 47.7696 108.35 47.4029 108.55C47.0363 108.717 46.7863 108.983 46.6529 109.35C46.5196 109.683 46.4529 110.217 46.4529 110.95V135.4C46.4529 136.133 46.5196 136.683 46.6529 137.05C46.7863 137.383 47.0363 137.65 47.4029 137.85C47.7696 138.017 48.3696 138.183 49.2029 138.35L51.7529 138.9V140H34.2529V138.9L36.8529 138.35ZM77.0857 140V114.15H81.5357V117.9C82.2524 116.75 83.2274 115.758 84.4607 114.925C85.7107 114.075 87.3441 113.65 89.3607 113.65C90.7774 113.65 92.2024 114.008 93.6357 114.725C95.0691 115.442 96.1274 116.492 96.8107 117.875C97.6107 116.608 98.6941 115.592 100.061 114.825C101.427 114.042 102.969 113.65 104.686 113.65C105.586 113.65 106.527 113.792 107.511 114.075C108.494 114.342 109.411 114.825 110.261 115.525C111.111 116.208 111.794 117.167 112.311 118.4C112.844 119.617 113.111 121.183 113.111 123.1V140H108.461V123.55C108.461 121.983 108.211 120.767 107.711 119.9C107.211 119.033 106.552 118.433 105.736 118.1C104.936 117.75 104.077 117.575 103.161 117.575C102.361 117.575 101.511 117.733 100.611 118.05C99.7107 118.367 98.9441 118.9 98.3107 119.65C97.6774 120.4 97.3607 121.425 97.3607 122.725V140H92.7607V122.2C92.7607 121.183 92.4857 120.333 91.9357 119.65C91.4024 118.95 90.7274 118.433 89.9107 118.1C89.1107 117.75 88.3107 117.575 87.5107 117.575C86.6274 117.575 85.7357 117.758 84.8357 118.125C83.9524 118.475 83.2024 119.025 82.5857 119.775C81.9857 120.525 81.6857 121.508 81.6857 122.725V140H77.0857ZM171.922 140.75C169.756 140.75 167.772 140.167 165.972 139C164.206 137.833 162.439 135.933 160.672 133.3L159.822 132.05C158.822 130.55 157.956 129.35 157.222 128.45C156.522 127.55 155.689 126.8 154.722 126.2C153.756 125.6 152.656 125.3 151.422 125.3H150.222V135.4C150.222 136.133 150.289 136.683 150.422 137.05C150.556 137.383 150.806 137.65 151.172 137.85C151.539 138.017 152.139 138.183 152.972 138.35L155.522 138.9V140H138.022V138.9L140.622 138.35C141.422 138.183 142.006 138.017 142.372 137.85C142.739 137.65 142.989 137.383 143.122 137.05C143.256 136.683 143.322 136.133 143.322 135.4V110.95C143.322 110.217 143.256 109.683 143.122 109.35C142.989 108.983 142.739 108.717 142.372 108.55C142.006 108.35 141.422 108.167 140.622 108L138.022 107.45V106.35H152.022C157.022 106.35 160.922 107.15 163.722 108.75C166.522 110.35 167.922 112.617 167.922 115.55C167.922 117.05 167.456 118.433 166.522 119.7C165.589 120.933 164.339 121.95 162.772 122.75C161.206 123.517 159.489 124 157.622 124.2V124.3C159.689 124.4 161.472 125.117 162.972 126.45C164.472 127.75 166.056 129.617 167.722 132.05C169.289 134.317 170.689 136.05 171.922 137.25C173.189 138.45 174.489 139.05 175.822 139.05V140.25C174.522 140.583 173.222 140.75 171.922 140.75ZM152.022 123.65C154.589 123.65 156.706 123 158.372 121.7C160.072 120.4 160.922 118.517 160.922 116.05C160.922 113.45 160.089 111.467 158.422 110.1C156.756 108.7 154.406 108 151.372 108H150.222V123.65H152.022ZM203.198 128.15C203.198 129.783 203.465 131.267 203.998 132.6C204.548 133.917 205.373 134.967 206.473 135.75C207.59 136.533 208.982 136.925 210.648 136.925C212.298 136.925 213.715 136.542 214.898 135.775C216.098 135.008 216.865 133.9 217.198 132.45H221.573C221.257 134.2 220.557 135.675 219.473 136.875C218.39 138.075 217.082 138.983 215.548 139.6C214.015 140.2 212.415 140.5 210.748 140.5C208.332 140.5 206.207 139.975 204.373 138.925C202.54 137.875 201.107 136.367 200.073 134.4C199.04 132.433 198.523 130.075 198.523 127.325C198.523 124.608 198.99 122.225 199.923 120.175C200.857 118.125 202.207 116.525 203.973 115.375C205.757 114.225 207.898 113.65 210.398 113.65C214.048 113.65 216.848 114.808 218.798 117.125C220.748 119.425 221.723 122.533 221.723 126.45V128.15H203.198ZM203.223 125.025H217.273C217.273 122.808 216.707 120.942 215.573 119.425C214.44 117.908 212.707 117.15 210.373 117.15C208.757 117.15 207.415 117.542 206.348 118.325C205.282 119.092 204.49 120.083 203.973 121.3C203.457 122.5 203.207 123.742 203.223 125.025Z" fill="#5fb4a2"/>
</svg>
